<svg viewBox="0 0 24 24" x="0" y="0" fill="none" xmlns="http://www.w3.org/2000/svg">
  <g id="&lt;Icon> Before_2" data-node-id="I9001:10102;9001:10052;2027:16907" xmlns="http://www.w3.org/2000/svg">
    <path id="Vector_4" data-node-id="I9001:10102;9001:10052;2027:16907;7005:7842" d="M8.625,12c0,0.2071 -0.168,0.375 -0.375,0.375c-0.207,0 -0.375,-0.1679 -0.375,-0.375c0,-0.2071 0.168,-0.375 0.375,-0.375c0.207,0 0.375,0.1679 0.375,0.375zM8.625,12h-0.375M12.375,12c0,0.2071 -0.168,0.375 -0.375,0.375c-0.207,0 -0.375,-0.1679 -0.375,-0.375c0,-0.2071 0.168,-0.375 0.375,-0.375c0.207,0 0.375,0.1679 0.375,0.375zM12.375,12h-0.375M16.125,12c0,0.2071 -0.168,0.375 -0.375,0.375c-0.207,0 -0.375,-0.1679 -0.375,-0.375c0,-0.2071 0.168,-0.375 0.375,-0.375c0.207,0 0.375,0.1679 0.375,0.375zM16.125,12h-0.375M21,12c0,4.5563 -4.029,8.25 -9,8.25c-0.887,0 -1.745,-0.1177 -2.555,-0.3371c-0.975,0.685 -2.163,1.0871 -3.445,1.0871c-0.199,0 -0.396,-0.0097 -0.59,-0.0287c-0.16,-0.0155 -0.318,-0.0374 -0.474,-0.0653c0.483,-0.5707 0.827,-1.2633 0.978,-2.0252c0.091,-0.457 -0.133,-0.9009 -0.467,-1.2259c-1.517,-1.4767 -2.447,-3.4663 -2.447,-5.6549c0,-4.5563 4.029,-8.25 9,-8.25c4.971,0 9,3.6937 9,8.25z" stroke="#2C64E3" stroke-width="1.5" stroke-linecap="round" stroke-linejoin="round" />
  </g>
</svg>