<svg viewBox="0 0 24 24" x="0" y="0" fill="none" xmlns="http://www.w3.org/2000/svg">
  <g id="&lt;Icon> Before" data-node-id="I9002:799;89:1331" xmlns="http://www.w3.org/2000/svg">
    <path id="Vector_3" data-node-id="I9002:799;89:1331;7005:10197" d="M15,19.128c0.83,0.242 1.71,0.372 2.62,0.372c1.48,0 2.88,-0.342 4.13,-0.952c0,-0.057 0,-0.115 0,-0.173c0,-2.278 -1.85,-4.125 -4.13,-4.125c-1.41,0 -2.66,0.716 -3.41,1.805M15,19.128v-0.003c0,-1.113 -0.29,-2.159 -0.79,-3.07M15,19.128c0,0.035 0,0.071 0,0.106c-1.86,1.121 -4.04,1.766 -6.38,1.766c-2.33,0 -4.51,-0.645 -6.37,-1.766c0,-0.036 0,-0.072 0,-0.109c0,-3.521 2.85,-6.375 6.37,-6.375c2.41,0 4.51,1.335 5.59,3.305M12,6.375c0,1.864 -1.51,3.375 -3.38,3.375c-1.86,0 -3.37,-1.511 -3.37,-3.375c0,-1.864 1.51,-3.375 3.37,-3.375c1.87,0 3.38,1.511 3.38,3.375zM20.25,8.625c0,1.45 -1.18,2.625 -2.63,2.625c-1.44,0 -2.62,-1.175 -2.62,-2.625c0,-1.45 1.18,-2.625 2.62,-2.625c1.45,0 2.63,1.175 2.63,2.625z" stroke="white" stroke-width="1.5" stroke-linecap="round" stroke-linejoin="round" />
  </g>
</svg>